<svg width="1200" height="800" viewBox="0 0 1200 800" fill="none" xmlns="http://www.w3.org/2000/svg">
  <defs>
    <linearGradient id="bg" x1="118" y1="86" x2="1029" y2="731" gradientUnits="userSpaceOnUse">
      <stop stop-color="#EAF4FF"/>
      <stop offset="0.52" stop-color="#F7FBFF"/>
      <stop offset="1" stop-color="#E9FFFB"/>
    </linearGradient>
    <linearGradient id="card" x1="234" y1="154" x2="907" y2="590" gradientUnits="userSpaceOnUse">
      <stop stop-color="#FFFFFF"/>
      <stop offset="1" stop-color="#F7FBFF"/>
    </linearGradient>
    <linearGradient id="accent" x1="370" y1="228" x2="841" y2="550" gradientUnits="userSpaceOnUse">
      <stop stop-color="#2563EB"/>
      <stop offset="1" stop-color="#06B6D4"/>
    </linearGradient>
    <linearGradient id="road" x1="305" y1="365" x2="890" y2="365" gradientUnits="userSpaceOnUse">
      <stop stop-color="#DBEAFE"/>
      <stop offset="1" stop-color="#CFFAFE"/>
    </linearGradient>
    <filter id="shadow" x="145" y="90" width="910" height="581" filterUnits="userSpaceOnUse" color-interpolation-filters="sRGB">
      <feFlood flood-opacity="0" result="BackgroundImageFix"/>
      <feColorMatrix in="SourceAlpha" type="matrix" values="0 0 0 0 0 0 0 0 0 0 0 0 0 0 0 0 0 0 127 0" result="hardAlpha"/>
      <feOffset dy="18"/>
      <feGaussianBlur stdDeviation="30"/>
      <feColorMatrix type="matrix" values="0 0 0 0 0.0588235 0 0 0 0 0.141176 0 0 0 0 0.278431 0 0 0 0.12 0"/>
      <feBlend mode="normal" in2="BackgroundImageFix" result="effect1_dropShadow_1_1"/>
      <feBlend mode="normal" in="SourceGraphic" in2="effect1_dropShadow_1_1" result="shape"/>
    </filter>
  </defs>

  <rect width="1200" height="800" rx="40" fill="url(#bg)"/>
  <circle cx="188" cy="142" r="114" fill="#BFDBFE" fill-opacity="0.45"/>
  <circle cx="1019" cy="654" r="134" fill="#A5F3FC" fill-opacity="0.45"/>

  <g opacity="0.45">
    <path d="M130 654C201 560 308 503 425 507C517 510 602 469 699 413C777 368 841 330 935 336" stroke="#93C5FD" stroke-width="12" stroke-linecap="round" stroke-dasharray="1 26"/>
    <circle cx="260" cy="558" r="10" fill="#60A5FA"/>
    <circle cx="560" cy="472" r="10" fill="#38BDF8"/>
    <circle cx="857" cy="343" r="10" fill="#0EA5E9"/>
  </g>

  <g filter="url(#shadow)">
    <rect x="205" y="132" width="790" height="521" rx="36" fill="url(#card)"/>
  </g>

  <rect x="272" y="191" width="167" height="40" rx="20" fill="#E0F2FE"/>
  <text x="355.5" y="217" fill="#0369A1" font-family="Sora, Arial, sans-serif" font-size="18" font-weight="700" letter-spacing="0.18em" text-anchor="middle">CARPOOLING</text>

  <text x="271" y="286" fill="#0F172A" font-family="Manrope, Arial, sans-serif" font-size="58" font-weight="800">
    <tspan x="271" dy="0">Trajectory-Based Ride</tspan>
    <tspan x="271" dy="68">Matching with Map APIs</tspan>
  </text>

  <text x="271" y="400" fill="#475569" font-family="Sora, Arial, sans-serif" font-size="24" font-weight="500">
    <tspan x="271" dy="0">Connect drivers and passengers travelling along</tspan>
    <tspan x="271" dy="36">similar routes with a clean, smart matching flow.</tspan>
  </text>

  <rect x="271" y="468" width="165" height="58" rx="18" fill="#2563EB"/>
  <text x="353.5" y="505" fill="white" font-family="Sora, Arial, sans-serif" font-size="23" font-weight="700" text-anchor="middle">Book Ride</text>

  <rect x="453" y="468" width="174" height="58" rx="18" fill="#EFF6FF" stroke="#BFDBFE" stroke-width="2"/>
  <text x="540" y="505" fill="#1E3A8A" font-family="Sora, Arial, sans-serif" font-size="23" font-weight="700" text-anchor="middle">Create Ride</text>

  <g>
    <rect x="680" y="204" width="242" height="328" rx="28" fill="#F8FBFF" stroke="#DBEAFE" stroke-width="2"/>
    <rect x="709" y="231" width="186" height="112" rx="24" fill="url(#accent)"/>
    <path d="M741 298H756L768 270C772 260 781 253 792 253H842C854 253 865 258 871 267L886 286H901C912 286 921 295 921 306V315H904C901 298 887 286 870 286C853 286 839 298 836 315H790C787 298 773 286 756 286C739 286 725 298 722 315H709V308C709 302 712 298 717 298H741Z" fill="white"/>
    <circle cx="756" cy="317" r="20" fill="#CFFAFE"/>
    <circle cx="756" cy="317" r="11" fill="#0F172A"/>
    <circle cx="870" cy="317" r="20" fill="#CFFAFE"/>
    <circle cx="870" cy="317" r="11" fill="#0F172A"/>

    <rect x="709" y="367" width="186" height="56" rx="16" fill="#EFF6FF"/>
    <circle cx="742" cy="395" r="10" fill="#06B6D4"/>
    <rect x="764" y="386" width="95" height="10" rx="5" fill="#93C5FD"/>
    <rect x="764" y="403" width="66" height="8" rx="4" fill="#BFDBFE"/>

    <rect x="709" y="438" width="186" height="56" rx="16" fill="#F0FDFA"/>
    <circle cx="742" cy="466" r="10" fill="#2563EB"/>
    <rect x="764" y="457" width="104" height="10" rx="5" fill="#67E8F9"/>
    <rect x="764" y="474" width="74" height="8" rx="4" fill="#BAE6FD"/>
  </g>

  <g>
    <path d="M326 610C348 557 410 520 476 520H695C746 520 798 544 832 584" stroke="url(#road)" stroke-width="22" stroke-linecap="round"/>
    <path d="M487 583H512" stroke="#93C5FD" stroke-width="10" stroke-linecap="round"/>
    <path d="M542 583H567" stroke="#93C5FD" stroke-width="10" stroke-linecap="round"/>
    <path d="M598 583H623" stroke="#93C5FD" stroke-width="10" stroke-linecap="round"/>
    <path d="M654 583H679" stroke="#93C5FD" stroke-width="10" stroke-linecap="round"/>
  </g>

  <g transform="translate(781 531)">
    <path d="M38 0C59 0 76 17 76 38C76 68 38 101 38 101C38 101 0 68 0 38C0 17 17 0 38 0Z" fill="#2563EB"/>
    <circle cx="38" cy="38" r="15" fill="white"/>
    <circle cx="38" cy="38" r="7" fill="#38BDF8"/>
  </g>

  <g transform="translate(227 555)">
    <path d="M32 0C50 0 64 14 64 32C64 57 32 84 32 84C32 84 0 57 0 32C0 14 14 0 32 0Z" fill="#06B6D4"/>
    <circle cx="32" cy="32" r="12" fill="white"/>
    <circle cx="32" cy="32" r="5.5" fill="#1D4ED8"/>
  </g>
</svg>
